<?xml version="1.0" encoding="utf-8"?>
<!-- Generator: Adobe Illustrator 24.0.1, SVG Export Plug-In . SVG Version: 6.00 Build 0)  -->
<svg version="1.1" id="Layer_3" xmlns="http://www.w3.org/2000/svg" xmlns:xlink="http://www.w3.org/1999/xlink" x="0px" y="0px"
	 viewBox="0 0 512 512" style="enable-background:new 0 0 512 512;" xml:space="preserve">
<style type="text/css">
	.st0{fill:#FF0025;}
</style>
<g>
	<path class="st0" d="M300,0v223.8h212v63H300v106.6c0,33.2,7.9,48.4,33.8,48.4c10.7,0,19.1-1.1,25.3-2.3l0.6,64.7
		c-11.3,4.5-31.5,7.3-55.7,7.3c-27.6,0-50.6-9.6-64.1-23.6c-15.8-16.3-23.6-42.8-23.6-81.6V286.8H0v-63h216.2V19.1L300,0z"/>
</g>
<g>
	<g>
		<polygon class="st0" points="173,91 119,91 119,37 82,37 82,91 28,91 28,128 82,128 82,182 119,182 119,128 173,128 		"/>
	</g>
	<g>
		<polygon class="st0" points="173,384 119,384 119,330 82,330 82,384 28,384 28,421 82,421 82,475 119,475 119,421 173,421 		"/>
	</g>
	<g>
		<polygon class="st0" points="484,91 430,91 430,37 393,37 393,91 339,91 339,128 393,128 393,182 430,182 430,128 484,128 		"/>
	</g>
</g>
</svg>
